<svg width="1457" height="924" viewBox="0 0 1457 924" fill="none" xmlns="http://www.w3.org/2000/svg">
<path fill-rule="evenodd" clip-rule="evenodd" d="M1454.5 35.9087C1409.67 83.242 1289.6 172.209 1168 149.409C1114.15 139.312 1061.12 121.245 1010.99 104.168C919.62 73.0424 837.907 45.2054 778.5 74.9087L777.748 75.2847C686.154 121.083 622.821 152.749 557.5 94.4087C550.514 88.1693 543.488 81.6285 536.395 75.0247C476.98 19.711 412.814 -40.0256 327.5 35.9087C232 120.909 133 194.909 5.5 134.909V564H0V854C116.167 861.167 354.2 878.3 377 889.5C405.5 903.5 816 948 961 905.5C1077 871.5 1339.67 866.333 1456.5 868V564H1454.5V35.9087Z" fill="#FDF8F3"/>
</svg>
